<?xml version="1.0" encoding="utf-8"?>
<!-- Generator: Adobe Illustrator 16.0.0, SVG Export Plug-In . SVG Version: 6.00 Build 0)  -->
<!DOCTYPE svg PUBLIC "-//W3C//DTD SVG 1.1//EN" "http://www.w3.org/Graphics/SVG/1.1/DTD/svg11.dtd">
<svg version="1.1" xmlns="http://www.w3.org/2000/svg" xmlns:xlink="http://www.w3.org/1999/xlink" x="0px" y="0px"
	 width="28.146px" height="25px" viewBox="0 0 28.146 25" enable-background="new 0 0 28.146 25" xml:space="preserve">
<g id="Layer_1">
	<g>
		<path fill="#FFFFFF" d="M8.559,25C5.675,24.495,2.866,24,0,23.497C0,17.57,0,11.671,0,5.679c2.821-0.505,5.674-1.015,8.576-1.533
			c0,2.16,0,4.233,0,6.447c-1.149-0.485-2.057,0.147-3.011,0.542c-1.658,0.686-3.306,1.404-5.025,2.14
			c0.395,0.593,0.742,1.116,1.088,1.638c2.379-0.645,4.309-2.438,6.932-2.544C8.559,16.659,8.559,20.78,8.559,25z"/>
		<path fill="#FFFFFF" d="M25.877,15.575c-0.2-0.604-0.363-1.098-0.565-1.707c-1.682,0.689-3.323,1.364-5.15,2.116
			c0.276-0.698,0.483-1.228,0.697-1.753c1.234-3.029,2.469-6.058,3.718-9.082c0.069-0.169,0.251-0.376,0.415-0.409
			c1.023-0.214,2.058-0.385,3.156-0.582c0,6.967,0,13.838,0,20.829c-1.048-0.184-2.05-0.359-3.052-0.533
			c-1.612-0.283-3.22-0.594-4.839-0.836c-0.519-0.078-0.705-0.25-0.69-0.781c0.033-1.332,0.035-2.666-0.002-4
			c-0.016-0.506,0.18-0.729,0.629-0.91C22.067,17.172,23.928,16.383,25.877,15.575z"/>
		<path fill="#FFFFFF" d="M9.786,12.654c1.464,0.199,2.839,0.37,4.206,0.585c0.237,0.038,0.504,0.213,0.661,0.403
			c1.148,1.388,2.286,2.788,3.397,4.205c0.19,0.241,0.346,0.583,0.354,0.883c0.038,1.386,0.035,2.774-0.003,4.16
			c-0.007,0.228-0.229,0.614-0.403,0.647c-2.64,0.494-5.29,0.941-7.937,1.396c-0.073,0.013-0.155-0.021-0.275-0.041
			C9.786,20.847,9.786,16.811,9.786,12.654z"/>
	</g>
	<path fill="#FFFFFF" d="M9.787,4.151c1.715,0.31,3.373,0.6,5.026,0.925c0.158,0.031,0.33,0.256,0.402,0.431
		c0.979,2.353,1.98,4.698,2.884,7.083c0.288,0.76,0.295,1.625,0.432,2.444c-0.095,0.028-0.189,0.059-0.284,0.088
		c-0.606-0.844-1.227-1.679-1.817-2.534c-0.415-0.599-0.909-0.97-1.68-1.066c-1.647-0.208-3.282-0.512-4.963-0.783
		C9.787,8.552,9.787,6.401,9.787,4.151z"/>
</g>
<g id="Layer_2">
	<path fill="#FFFFFF" d="M19.816,13.293c-1.247-2.979-2.468-5.738-3.553-8.552c-0.578-1.498,0.119-3.178,1.458-4.089
		c1.32-0.903,3.083-0.865,4.364,0.095c1.328,0.992,1.87,2.637,1.245,4.227c-0.88,2.245-1.858,4.452-2.799,6.673
		C20.328,12.13,20.114,12.61,19.816,13.293z M21.464,3.738c0.006-0.933-0.682-1.639-1.606-1.648c-0.921-0.01-1.641,0.692-1.651,1.61
		c-0.012,0.906,0.716,1.658,1.611,1.67C20.708,5.382,21.457,4.638,21.464,3.738z"/>
</g>
</svg>
