<?xml version="1.0" encoding="utf-8"?>
<!-- Generator: Adobe Illustrator 16.0.0, SVG Export Plug-In . SVG Version: 6.00 Build 0)  -->
<!DOCTYPE svg PUBLIC "-//W3C//DTD SVG 1.1//EN" "http://www.w3.org/Graphics/SVG/1.1/DTD/svg11.dtd">
<svg version="1.1" id="Layer_1" xmlns="http://www.w3.org/2000/svg" xmlns:xlink="http://www.w3.org/1999/xlink" x="0px" y="0px"
	 width="22.984px" height="24.028px" viewBox="0 0 22.984 24.028" enable-background="new 0 0 22.984 24.028" xml:space="preserve">
<g>
	<path fill-rule="evenodd" clip-rule="evenodd" fill="#FFFFFF" d="M22.982,0c0,1.683,0,3.346,0,5.044c-7.664,0-15.297,0-22.966,0
		c0-1.672,0-3.339,0-5.044C7.658,0,15.304,0,22.982,0z"/>
	<path fill-rule="evenodd" clip-rule="evenodd" fill="#FFFFFF" d="M22.984,9.493c0,1.707,0,3.357,0,5.041
		c-7.663,0-15.297,0-22.967,0c0-1.668,0-3.334,0-5.041C7.657,9.493,15.302,9.493,22.984,9.493z"/>
	<path fill-rule="evenodd" clip-rule="evenodd" fill="#FFFFFF" d="M0,24.028c0-1.703,0-3.354,0-5.049c7.649,0,15.279,0,22.963,0
		c0,1.667,0,3.343,0,5.049C15.317,24.028,7.683,24.028,0,24.028z"/>
</g>
</svg>
